<?xml version="1.0" encoding="utf-8"?>
<!-- Generator: Adobe Illustrator 23.0.5, SVG Export Plug-In . SVG Version: 6.00 Build 0)  -->
<svg version="1.1" id="Layer_1" xmlns="http://www.w3.org/2000/svg" xmlns:xlink="http://www.w3.org/1999/xlink" x="0px" y="0px"
	 viewBox="0 0 70 28" style="enable-background:new 0 0 70 28;" xml:space="preserve">
<style type="text/css">
	.st0{fill:#006AE2;}
	.st1{fill:#4491E9;}
	.st2{fill:#FFFFFF;}
</style>
<g>
	<path class="st0" d="M28.53,14c0,1.07-0.12,2.12-0.36,3.12c-0.08,0.34-0.17,0.68-0.28,1.01c-1.76,5.59-6.98,9.65-13.15,9.65
		C7.14,27.78,0.97,21.61,0.97,14c0-1.58,0.27-3.1,0.76-4.51c0.12-0.36,0.26-0.71,0.42-1.06c0,0,0-0.01,0.01-0.01h13.65
		c1.89,0,2.84,0.59,2.84,1.76c0,0.83-0.39,1.56-1.16,2.19c-0.46,0.38-1.18,0.8-2.18,1.24c-0.72,0.32-1.16,0.65-1.32,0.98
		c-0.02,0.05-0.02,0.12-0.02,0.23c0,0.21,0.16,0.55,0.48,1.02c0.32,0.47,0.48,0.87,0.48,1.2c0,1.05-0.72,1.81-2.16,2.27
		c-0.98,0.3-2.17,0.46-3.58,0.46H8.56l3.71-9.89H7.92l-2.18,5.84l2.46,4.77l0.35,0.68c0.08,0.15,0.16,0.29,0.25,0.43h1.04
		c2.21,0,4.14-0.29,5.8-0.87c2.32-0.81,3.48-2.07,3.48-3.77c0-0.82-0.31-1.74-0.93-2.75c1.53-0.71,2.67-1.35,3.42-1.94
		c1.25-0.97,1.87-2.02,1.87-3.14c0-1.35-0.57-2.31-1.71-2.89c-0.93-0.47-2.32-0.71-4.17-0.71H3.87c2.52-3.24,6.46-5.32,10.88-5.32
		C22.36,0.22,28.53,6.39,28.53,14z"/>
	<path class="st1" d="M18.64,10.17c0,0.83-0.39,1.56-1.16,2.19c-0.46,0.38-1.18,0.8-2.18,1.24c-0.72,0.32-1.16,0.65-1.32,0.98
		c-0.02,0.05-0.02,0.12-0.02,0.23c0,0.21,0.16,0.55,0.48,1.02c0.32,0.47,0.48,0.87,0.48,1.2c0,1.05-0.72,1.81-2.16,2.27
		c-0.98,0.3-2.17,0.46-3.58,0.46H8.56l3.71-9.89H7.92l-2.18,5.84l0-0.01L2.59,9.63c-0.2-0.39-0.35-0.79-0.45-1.2
		c0,0,0-0.01,0.01-0.01h13.65C17.69,8.42,18.64,9,18.64,10.17z"/>
	<path class="st1" d="M28.53,14c0,1.07-0.12,2.12-0.36,3.12c-0.22,0.16-0.45,0.3-0.7,0.43l-11.54,5.97
		c-2.54,1.31-5.62,0.44-7.13-1.92h1.04c2.21,0,4.14-0.29,5.8-0.87c2.32-0.81,3.48-2.07,3.48-3.77c0-0.82-0.31-1.74-0.93-2.75
		c1.53-0.71,2.67-1.35,3.42-1.94c1.25-0.97,1.87-2.02,1.87-3.14c0-1.35-0.57-2.31-1.71-2.89c-0.93-0.47-2.32-0.71-4.17-0.71H3.87
		c2.52-3.24,6.46-5.32,10.88-5.32C22.36,0.22,28.53,6.39,28.53,14z"/>
	<path class="st2" d="M23.5,9.13c0,1.12-0.62,2.17-1.87,3.14c-0.75,0.59-1.89,1.23-3.42,1.94c0.62,1.01,0.93,1.93,0.93,2.75
		c0,1.7-1.16,2.95-3.48,3.77c-1.66,0.58-3.6,0.87-5.8,0.87H3.56l1.78-4.77l0.41-1.1l2.18-5.84h4.35l-3.71,9.89h0.62
		c1.41,0,2.6-0.15,3.58-0.46c1.44-0.46,2.16-1.22,2.16-2.27c0-0.33-0.16-0.74-0.48-1.2c-0.32-0.47-0.48-0.81-0.48-1.02
		c0-0.11,0.01-0.18,0.02-0.23c0.16-0.33,0.6-0.66,1.32-0.98c0.99-0.45,1.72-0.86,2.18-1.24c0.77-0.63,1.16-1.36,1.16-2.19
		c0-1.17-0.95-1.76-2.84-1.76H2.15c0,0,0,0,0,0C2.17,8.36,2.2,8.31,2.22,8.25c0.01-0.02,0.02-0.05,0.03-0.07
		C2.27,8.14,2.3,8.09,2.32,8.05c0.01-0.01,0.01-0.02,0.02-0.03c0.02-0.05,0.05-0.1,0.07-0.15c0.01-0.01,0.01-0.03,0.02-0.04
		c0.03-0.06,0.06-0.11,0.08-0.17c0,0,0,0,0-0.01c0.03-0.06,0.06-0.12,0.1-0.19c0.03-0.06,0.07-0.12,0.1-0.18
		c0.03-0.06,0.07-0.12,0.1-0.18c0.04-0.06,0.07-0.12,0.11-0.18C2.96,6.86,3,6.8,3.03,6.74c0,0,0,0,0,0
		c0.04-0.06,0.07-0.12,0.11-0.17c0,0,0-0.01,0-0.01c0.07-0.11,0.14-0.22,0.21-0.32c0.01-0.02,0.02-0.03,0.03-0.04
		c0.03-0.05,0.07-0.1,0.1-0.15c0.04-0.06,0.08-0.11,0.12-0.16c0,0,0-0.01,0.01-0.01c0.04-0.05,0.08-0.1,0.11-0.15
		c0-0.01,0.01-0.01,0.01-0.02c0.04-0.05,0.08-0.11,0.12-0.16h13.75c1.85,0,3.24,0.24,4.17,0.71C22.93,6.83,23.5,7.79,23.5,9.13z"/>
</g>
<g>
	<path class="st1" d="M35.74,17.79H33.1c-0.38,0-0.66-0.09-0.82-0.26c-0.16-0.17-0.25-0.45-0.25-0.82v-6.55
		c0-0.38,0.08-0.66,0.25-0.83c0.17-0.17,0.44-0.25,0.81-0.25h2.81c0.41,0,0.77,0.03,1.08,0.08c0.3,0.05,0.58,0.15,0.82,0.3
		c0.2,0.12,0.39,0.28,0.54,0.47c0.16,0.19,0.28,0.4,0.36,0.62c0.08,0.23,0.12,0.47,0.12,0.72c0,0.87-0.43,1.51-1.3,1.91
		c1.14,0.36,1.71,1.07,1.71,2.13c0,0.49-0.12,0.93-0.37,1.32c-0.25,0.39-0.58,0.68-1,0.86c-0.26,0.11-0.57,0.19-0.91,0.23
		C36.6,17.77,36.2,17.79,35.74,17.79z M33.79,10.4v2.25h1.61c0.44,0,0.78-0.04,1.01-0.12c0.24-0.08,0.42-0.24,0.55-0.48
		c0.1-0.17,0.15-0.35,0.15-0.56c0-0.44-0.16-0.73-0.47-0.88c-0.31-0.14-0.79-0.22-1.42-0.22H33.79z M35.61,13.92h-1.83v2.54h1.89
		c1.19,0,1.78-0.43,1.78-1.29c0-0.44-0.15-0.76-0.46-0.96C36.68,14.02,36.23,13.92,35.61,13.92z"/>
	<path class="st1" d="M41.76,10.59c-0.22,0-0.42-0.07-0.58-0.21c-0.16-0.14-0.24-0.33-0.24-0.59c0-0.23,0.08-0.42,0.25-0.57
		C41.35,9.08,41.54,9,41.76,9c0.21,0,0.39,0.07,0.56,0.2c0.16,0.13,0.24,0.33,0.24,0.59c0,0.25-0.08,0.44-0.24,0.59
		C42.16,10.52,41.97,10.59,41.76,10.59z M42.56,12.26v4.69c0,0.32-0.08,0.57-0.23,0.74c-0.15,0.17-0.35,0.25-0.59,0.25
		c-0.24,0-0.43-0.09-0.58-0.26c-0.15-0.17-0.22-0.41-0.22-0.73v-4.64c0-0.32,0.07-0.56,0.22-0.72c0.15-0.16,0.34-0.24,0.58-0.24
		c0.24,0,0.43,0.08,0.59,0.24C42.48,11.75,42.56,11.98,42.56,12.26z"/>
	<path class="st1" d="M44.61,11.49h0.18v-0.97c0-0.26,0.01-0.47,0.02-0.61c0.01-0.15,0.05-0.28,0.12-0.38
		c0.06-0.11,0.15-0.2,0.27-0.27c0.12-0.07,0.25-0.1,0.4-0.1c0.2,0,0.39,0.08,0.56,0.23c0.11,0.1,0.18,0.23,0.21,0.38
		c0.03,0.15,0.04,0.36,0.04,0.63v1.11H47c0.23,0,0.4,0.05,0.52,0.16c0.12,0.11,0.18,0.25,0.18,0.42c0,0.22-0.09,0.37-0.26,0.46
		c-0.17,0.09-0.42,0.13-0.74,0.13h-0.3v2.98c0,0.25,0.01,0.45,0.03,0.59c0.02,0.14,0.07,0.25,0.14,0.33
		c0.08,0.09,0.2,0.13,0.38,0.13c0.09,0,0.22-0.02,0.38-0.05c0.16-0.03,0.29-0.05,0.38-0.05c0.13,0,0.25,0.05,0.35,0.16
		c0.1,0.11,0.16,0.23,0.16,0.39c0,0.26-0.14,0.46-0.43,0.6c-0.28,0.14-0.69,0.21-1.22,0.21c-0.5,0-0.89-0.09-1.15-0.26
		c-0.26-0.17-0.43-0.41-0.51-0.71c-0.08-0.3-0.12-0.7-0.12-1.21v-3.11h-0.21c-0.23,0-0.41-0.06-0.53-0.17
		c-0.12-0.11-0.18-0.25-0.18-0.42c0-0.17,0.06-0.31,0.19-0.42C44.18,11.54,44.37,11.49,44.61,11.49z"/>
	<path class="st1" d="M53.5,13.2l-2.96,3.32h3.16c0.26,0,0.45,0.06,0.58,0.18c0.13,0.12,0.2,0.28,0.2,0.47
		c0,0.18-0.06,0.33-0.19,0.45c-0.13,0.11-0.32,0.17-0.58,0.17h-4.37c-0.31,0-0.54-0.07-0.69-0.2c-0.15-0.13-0.23-0.32-0.23-0.55
		c0-0.14,0.05-0.28,0.16-0.42c0.11-0.14,0.33-0.4,0.66-0.78c0.35-0.4,0.68-0.75,0.97-1.08c0.29-0.32,0.56-0.62,0.81-0.9
		c0.25-0.28,0.45-0.52,0.62-0.71c0.16-0.19,0.29-0.36,0.39-0.5h-2.4c-0.33,0-0.58-0.03-0.75-0.09c-0.17-0.06-0.25-0.22-0.25-0.47
		c0-0.19,0.06-0.33,0.19-0.45c0.13-0.11,0.31-0.17,0.55-0.17h3.71c0.34,0,0.61,0.05,0.79,0.15c0.18,0.1,0.27,0.28,0.27,0.54
		c0,0.09-0.02,0.18-0.05,0.27c-0.04,0.09-0.07,0.17-0.12,0.23c-0.04,0.06-0.1,0.13-0.18,0.22C53.7,12.98,53.61,13.08,53.5,13.2z"/>
	<path class="st1" d="M56.54,10.59c-0.22,0-0.42-0.07-0.58-0.21c-0.16-0.14-0.24-0.33-0.24-0.59c0-0.23,0.08-0.42,0.25-0.57
		C56.13,9.08,56.32,9,56.54,9c0.21,0,0.39,0.07,0.56,0.2c0.16,0.13,0.24,0.33,0.24,0.59c0,0.25-0.08,0.44-0.24,0.59
		C56.94,10.52,56.76,10.59,56.54,10.59z M57.34,12.26v4.69c0,0.32-0.08,0.57-0.23,0.74c-0.15,0.17-0.35,0.25-0.59,0.25
		c-0.24,0-0.43-0.09-0.58-0.26c-0.15-0.17-0.22-0.41-0.22-0.73v-4.64c0-0.32,0.07-0.56,0.22-0.72c0.15-0.16,0.34-0.24,0.58-0.24
		c0.24,0,0.43,0.08,0.59,0.24C57.26,11.75,57.34,11.98,57.34,12.26z"/>
	<path class="st1" d="M59.18,11.49h0.38V11c0-0.51,0.06-0.91,0.19-1.21c0.13-0.3,0.34-0.52,0.65-0.65c0.31-0.14,0.72-0.2,1.26-0.2
		c0.94,0,1.41,0.23,1.41,0.7c0,0.15-0.05,0.28-0.15,0.39c-0.1,0.11-0.21,0.16-0.35,0.16c-0.06,0-0.17-0.01-0.33-0.04
		c-0.15-0.02-0.28-0.04-0.39-0.04c-0.29,0-0.48,0.09-0.56,0.26c-0.08,0.17-0.12,0.42-0.12,0.74v0.39h0.4c0.61,0,0.92,0.19,0.92,0.56
		c0,0.27-0.08,0.43-0.25,0.5c-0.16,0.07-0.39,0.11-0.68,0.11h-0.4v4.3c0,0.32-0.08,0.57-0.23,0.73c-0.15,0.17-0.35,0.25-0.59,0.25
		c-0.23,0-0.42-0.08-0.57-0.25c-0.15-0.17-0.23-0.41-0.23-0.73v-4.3h-0.44c-0.24,0-0.43-0.05-0.56-0.16
		c-0.13-0.11-0.2-0.25-0.2-0.42C58.37,11.68,58.64,11.49,59.18,11.49z"/>
	<path class="st1" d="M65.13,18.14l0.15-0.36l-1.99-5.03c-0.12-0.29-0.18-0.5-0.18-0.63c0-0.14,0.04-0.27,0.11-0.39
		c0.07-0.12,0.17-0.21,0.29-0.29c0.12-0.07,0.25-0.11,0.39-0.11c0.23,0,0.41,0.07,0.53,0.22c0.12,0.15,0.22,0.36,0.31,0.64
		l1.37,3.99l1.29-3.71c0.1-0.3,0.2-0.54,0.28-0.71c0.08-0.17,0.17-0.29,0.26-0.34c0.09-0.06,0.22-0.09,0.39-0.09
		c0.12,0,0.24,0.03,0.35,0.1c0.11,0.07,0.2,0.15,0.26,0.26c0.06,0.11,0.09,0.23,0.09,0.35c-0.02,0.08-0.04,0.18-0.08,0.32
		c-0.04,0.14-0.08,0.28-0.13,0.42l-2.1,5.54c-0.18,0.49-0.36,0.87-0.53,1.15c-0.17,0.28-0.4,0.49-0.69,0.64
		c-0.29,0.15-0.67,0.22-1.16,0.22c-0.47,0-0.83-0.05-1.06-0.15c-0.24-0.1-0.35-0.29-0.35-0.56c0-0.19,0.06-0.33,0.17-0.43
		c0.11-0.1,0.28-0.15,0.5-0.15c0.09,0,0.17,0.01,0.25,0.04c0.1,0.02,0.19,0.04,0.27,0.04c0.19,0,0.33-0.03,0.44-0.08
		c0.11-0.06,0.2-0.15,0.29-0.29C64.92,18.61,65.02,18.41,65.13,18.14z"/>
</g>
</svg>
